<svg xmlns="http://www.w3.org/2000/svg" width="178.857" height="61.095" viewBox="0 0 178.857 61.095">
  <g id="logo-footer-default" transform="translate(-401 -202)">
    <g id="logo" transform="translate(271.005 187.406)">
      <path id="path28" d="M699.1-846.665H654.665v6.721H699.1Z" transform="translate(-514.201 915.633)" fill="#fd8a06"/>
      <path id="path32" d="M-168.431-57.014a13.7,13.7,0,0,0-4-9.707,13.7,13.7,0,0,0-9.7-4.023,13.585,13.585,0,0,0-5.849,1.329,13.722,13.722,0,0,0-13.139-9.779,13.724,13.724,0,0,0-13.141,9.773,13.644,13.644,0,0,0-5.865-1.323,13.813,13.813,0,0,0-13.827,13.73,13.335,13.335,0,0,0,10.464,13.348v15.86h44.436v-15.86a13.47,13.47,0,0,0,10.62-13.348" transform="translate(363.951 93.788)" fill="#fd8a06"/>
      <path id="path36" d="M0-32.851v-12.78H3.051Z" transform="translate(143.452 97.049)" fill="#fff"/>
      <path id="path40" d="M-4.1-27.46A10.677,10.677,0,0,1,5.192-38.042a9.72,9.72,0,0,0-1-.1,9.885,9.885,0,0,0-9.885,9.885A9.845,9.845,0,0,0-.849-19.8,10.644,10.644,0,0,1-4.1-27.46" transform="translate(138.368 65.072)" fill="#fff"/>
      <path id="path44" d="M-16.119-5.8A10.677,10.677,0,0,1-3.171-.269a9.613,9.613,0,0,0-.215-.982A9.885,9.885,0,0,0-15.858-7.566,9.845,9.845,0,0,0-22.389-.329,10.644,10.644,0,0,1-16.119-5.8" transform="translate(175.703 25.421)" fill="#fff"/>
      <path id="path48" d="M-17.36-12.509A10.677,10.677,0,0,1-19.814,1.357a9.716,9.716,0,0,0,.907-.433,9.885,9.885,0,0,0,3.324-13.579,9.845,9.845,0,0,0-8.53-4.72,10.643,10.643,0,0,1,6.753,4.866" transform="translate(205.41 43.952)" fill="#fff"/>
    </g>
    <path id="Path_69" data-name="Path 69" d="M-35.725-7.8c0,1.415-.85,2.445-2.751,2.445h-2.351v-4.851h2.334C-36.525-10.2-35.725-9.267-35.725-7.8Zm-6.267-3.384V.468h1.167V-4.4h2.15L-35.792.468h1.4l-3-4.951A3.217,3.217,0,0,0-34.526-7.8c0-1.917-1.267-3.384-3.967-3.384Zm13.669,3.417a2.976,2.976,0,0,1,2.309.871,2.976,2.976,0,0,1,.858,2.316h-6.4a3.142,3.142,0,0,1,.937-2.282,3.142,3.142,0,0,1,2.3-.9Zm4.218,5.351h-1.234A2.818,2.818,0,0,1-28.273-.382a3.182,3.182,0,0,1-2.34-.916,3.182,3.182,0,0,1-.943-2.331h7.551a7.977,7.977,0,0,0,.033-.917A4.091,4.091,0,0,0-25.2-7.6,4.091,4.091,0,0,0-28.274-8.76a4.313,4.313,0,0,0-3.29,1.334,4.313,4.313,0,0,0-1.175,3.345A4.338,4.338,0,0,0-31.555-.735,4.338,4.338,0,0,0-28.274.608a4,4,0,0,0,4.167-3.017Zm8.568.467c-.05-3.217-5.435-1.9-5.435-4.367,0-.8.772-1.45,1.984-1.45a1.944,1.944,0,0,1,1.487.414,1.944,1.944,0,0,1,.717,1.368h1.167A2.959,2.959,0,0,0-16.677-8.1a2.959,2.959,0,0,0-2.275-.664c-1.917,0-3.2,1.117-3.2,2.466,0,3.417,5.467,2.1,5.467,4.35,0,.867-.733,1.567-2.034,1.567-1.483,0-2.351-.717-2.445-1.716h-1.2C-22.213-.428-20.763.6-18.7.6c1.875,0,3.157-1.085,3.157-2.551ZM-13-2c0,1.817.85,2.466,2.434,2.466H-9.32V-.526h-1.067c-1.05,0-1.433-.35-1.433-1.467V-7.65h2.5v-.982h-2.5v-2.284h-1.184v2.284h-1.267v.983h1.267Zm5.067-2.1A4.324,4.324,0,0,0-6.809-.792,4.324,4.324,0,0,0-3.6.6,3.844,3.844,0,0,0,.013-1.555V.462H1.18V-8.631H.013v2a3.8,3.8,0,0,0-3.6-2.133A4.3,4.3,0,0,0-6.8-7.4a4.3,4.3,0,0,0-1.14,3.3Zm7.951.017A3.392,3.392,0,0,1-.874-1.509,3.392,3.392,0,0,1-3.37-.418,3.359,3.359,0,0,1-5.882-1.506,3.359,3.359,0,0,1-6.749-4.1a3.323,3.323,0,0,1,.87-2.587A3.323,3.323,0,0,1-3.365-7.75,3.392,3.392,0,0,1-.873-6.656,3.392,3.392,0,0,1,.013-4.083ZM11.732-8.631H10.565V-3.68C10.565-1.464,9.381-.4,7.682-.4a2.662,2.662,0,0,1-2.107-.871,2.662,2.662,0,0,1-.66-2.187V-8.631H3.764v5.318A3.532,3.532,0,0,0,4.7-.483,3.532,3.532,0,0,0,7.464.623a3.289,3.289,0,0,0,3.1-1.75v1.6h1.167Zm3.833,4.014c0-2.284,1.287-2.967,2.8-2.967h.317V-8.8a3.134,3.134,0,0,0-3.117,1.785V-8.631H14.4V.47h1.167ZM19.9-4.1a4.324,4.324,0,0,0,1.127,3.31A4.324,4.324,0,0,0,24.233.6a3.844,3.844,0,0,0,3.618-2.156V.462h1.168V-8.631H27.852v2a3.8,3.8,0,0,0-3.6-2.129A4.3,4.3,0,0,0,21.042-7.4,4.3,4.3,0,0,0,19.9-4.1Zm7.951.017a3.392,3.392,0,0,1-.888,2.573,3.392,3.392,0,0,1-2.5,1.091,3.359,3.359,0,0,1-2.514-1.086,3.359,3.359,0,0,1-.87-2.6,3.323,3.323,0,0,1,.87-2.587,3.323,3.323,0,0,1,2.514-1.063,3.392,3.392,0,0,1,2.5,1.092,3.392,3.392,0,0,1,.888,2.573ZM38.5.468h1.15V-4.867A3.532,3.532,0,0,0,38.716-7.7,3.532,3.532,0,0,0,35.951-8.8a3.326,3.326,0,0,0-3.1,1.716V-8.631H31.684V.47H32.85V-4.5c0-2.217,1.184-3.283,2.883-3.283a2.662,2.662,0,0,1,2.106.87A2.662,2.662,0,0,1,38.5-4.733ZM42.568-2c0,1.817.85,2.466,2.434,2.466h1.251V-.526H45.187c-1.05,0-1.433-.35-1.433-1.467V-7.65h2.5v-.982h-2.5v-2.284H42.568v2.284H41.3v.983h1.267Z" transform="translate(521.884 260.079)" fill="#fff"/>
    <path id="Path_1" data-name="Path 1" d="M6.055-17.5a2.217,2.217,0,0,1-.177.879,2.261,2.261,0,0,1-.482.72,2.261,2.261,0,0,1-.72.482,2.217,2.217,0,0,1-.879.177,2.173,2.173,0,0,1-.873-.177,2.28,2.28,0,0,1-.714-.482,2.261,2.261,0,0,1-.482-.72A2.217,2.217,0,0,1,1.55-17.5a2.173,2.173,0,0,1,.177-.873,2.28,2.28,0,0,1,.482-.714,2.28,2.28,0,0,1,.714-.482,2.173,2.173,0,0,1,.873-.177,2.217,2.217,0,0,1,.879.177,2.261,2.261,0,0,1,.72.482,2.28,2.28,0,0,1,.482.714A2.173,2.173,0,0,1,6.055-17.5ZM5.872,0H1.733V-14.087H5.872Zm8.765,0H10.5V-12.463H7.935V-14.1H10.5v-5.188h4.138V-14.1h4.272v1.636H14.636ZM34.57,0H30.444V-1.685A4.576,4.576,0,0,1,28.68-.2a5.281,5.281,0,0,1-2.264.482,6.923,6.923,0,0,1-2.881-.574,6.272,6.272,0,0,1-2.148-1.569A6.88,6.88,0,0,1,20.044-4.2,8.763,8.763,0,0,1,19.58-7.08a8.763,8.763,0,0,1,.464-2.881A6.88,6.88,0,0,1,21.387-12.3a6.273,6.273,0,0,1,2.148-1.569,6.923,6.923,0,0,1,2.881-.574,4.927,4.927,0,0,1,1.556.244,4.95,4.95,0,0,1,1.355.69,5.034,5.034,0,0,1,1.086,1.074,5.158,5.158,0,0,1,.739,1.4L32.983-14.1H34.57ZM30.42-7.08q0-.549-.055-1.16a9.329,9.329,0,0,0-.189-1.208A6.244,6.244,0,0,0,29.8-10.59a3.665,3.665,0,0,0-.61-.964,2.706,2.706,0,0,0-.9-.665,2.867,2.867,0,0,0-1.221-.244,2.727,2.727,0,0,0-1.208.25,2.75,2.75,0,0,0-.879.671,3.722,3.722,0,0,0-.6.97,6.41,6.41,0,0,0-.372,1.147,9.348,9.348,0,0,0-.189,1.2q-.055.6-.055,1.141t.055,1.147a9.329,9.329,0,0,0,.189,1.208,6.41,6.41,0,0,0,.372,1.147,3.722,3.722,0,0,0,.6.97,2.75,2.75,0,0,0,.879.671,2.727,2.727,0,0,0,1.208.25A2.371,2.371,0,0,0,28.2-1.947a2.928,2.928,0,0,0,.867-.7,4.3,4.3,0,0,0,.629-1,7.287,7.287,0,0,0,.415-1.16A8.9,8.9,0,0,0,30.347-6,8.861,8.861,0,0,0,30.42-7.08ZM42.139,0H38.013V-20.593H39.6l2.539,4.285Zm7.776-17.5a2.217,2.217,0,0,1-.177.879,2.261,2.261,0,0,1-.482.72,2.261,2.261,0,0,1-.72.482,2.217,2.217,0,0,1-.879.177,2.173,2.173,0,0,1-.873-.177,2.28,2.28,0,0,1-.714-.482,2.261,2.261,0,0,1-.482-.72,2.217,2.217,0,0,1-.177-.879,2.174,2.174,0,0,1,.177-.873,2.28,2.28,0,0,1,.482-.714,2.28,2.28,0,0,1,.714-.482,2.173,2.173,0,0,1,.873-.177,2.217,2.217,0,0,1,.879.177,2.261,2.261,0,0,1,.72.482,2.28,2.28,0,0,1,.482.714A2.174,2.174,0,0,1,49.915-17.5ZM49.731,0H45.593V-14.087h4.138ZM67.383,0H63.257V-1.685A4.576,4.576,0,0,1,61.493-.2a5.281,5.281,0,0,1-2.264.482,6.923,6.923,0,0,1-2.881-.574A6.272,6.272,0,0,1,54.2-1.862,6.88,6.88,0,0,1,52.856-4.2a8.763,8.763,0,0,1-.464-2.881,8.763,8.763,0,0,1,.464-2.881A6.88,6.88,0,0,1,54.2-12.3a6.272,6.272,0,0,1,2.148-1.569,6.923,6.923,0,0,1,2.881-.574,4.927,4.927,0,0,1,1.556.244,4.95,4.95,0,0,1,1.355.69,5.034,5.034,0,0,1,1.086,1.074,5.158,5.158,0,0,1,.739,1.4L65.8-14.1h1.587Zm-4.15-7.08q0-.549-.055-1.16a9.329,9.329,0,0,0-.189-1.208,6.244,6.244,0,0,0-.372-1.141,3.665,3.665,0,0,0-.61-.964,2.706,2.706,0,0,0-.9-.665,2.867,2.867,0,0,0-1.221-.244,2.727,2.727,0,0,0-1.208.25,2.75,2.75,0,0,0-.879.671,3.722,3.722,0,0,0-.6.97,6.41,6.41,0,0,0-.372,1.147,9.348,9.348,0,0,0-.189,1.2q-.055.6-.055,1.141t.055,1.147a9.329,9.329,0,0,0,.189,1.208A6.41,6.41,0,0,0,57.2-3.577a3.722,3.722,0,0,0,.6.97,2.75,2.75,0,0,0,.879.671,2.727,2.727,0,0,0,1.208.25,2.371,2.371,0,0,0,1.129-.262,2.928,2.928,0,0,0,.867-.7,4.3,4.3,0,0,0,.629-1,7.287,7.287,0,0,0,.415-1.16A8.9,8.9,0,0,0,63.159-6,8.861,8.861,0,0,0,63.232-7.08Zm22.009-1A13.6,13.6,0,0,1,84.894-5.1a18.2,18.2,0,0,1-.97,3.04,16.89,16.89,0,0,1-1.489,2.8A12.108,12.108,0,0,1,80.53,3l-1.55-.842A11.993,11.993,0,0,0,79.6.793q.293-.757.531-1.605t.427-1.752q.189-.9.317-1.788t.2-1.721q.067-.836.067-1.556,0-.476-.037-1.019a7.669,7.669,0,0,0-.153-1.086,6.731,6.731,0,0,0-.311-1.044,3.041,3.041,0,0,0-.519-.879,2.505,2.505,0,0,0-.781-.61,2.362,2.362,0,0,0-1.08-.232,2.134,2.134,0,0,0-1.086.275,3.075,3.075,0,0,0-.842.72,4.626,4.626,0,0,0-.629,1.019,7.694,7.694,0,0,0-.427,1.178,8.556,8.556,0,0,0-.238,1.19,8.553,8.553,0,0,0-.073,1.05V0H70.825V-14.1h1.587L74.3-10.815a6.693,6.693,0,0,1,.854-1.489,5.733,5.733,0,0,1,1.16-1.147,5.029,5.029,0,0,1,1.434-.732,5.47,5.47,0,0,1,1.7-.256,6.315,6.315,0,0,1,2.551.476,4.918,4.918,0,0,1,1.807,1.324,5.57,5.57,0,0,1,1.074,2.014A8.726,8.726,0,0,1,85.242-8.081Zm17.615,1a7.062,7.062,0,0,1-.293,2.063,7.235,7.235,0,0,1-.812,1.782A6.953,6.953,0,0,1,100.5-1.764,7.764,7.764,0,0,1,98.9-.659a8.407,8.407,0,0,1-1.868.7,8.548,8.548,0,0,1-2.045.244A8.473,8.473,0,0,1,92.944.037a8.433,8.433,0,0,1-1.862-.7,7.764,7.764,0,0,1-1.605-1.1,6.953,6.953,0,0,1-1.251-1.471,7.21,7.21,0,0,1-.812-1.788,7.08,7.08,0,0,1-.293-2.057,7.08,7.08,0,0,1,.293-2.057,7.21,7.21,0,0,1,.812-1.788A6.953,6.953,0,0,1,89.478-12.4a7.764,7.764,0,0,1,1.605-1.1,8.433,8.433,0,0,1,1.862-.7,8.473,8.473,0,0,1,2.039-.244,8.548,8.548,0,0,1,2.045.244,8.407,8.407,0,0,1,1.868.7,7.764,7.764,0,0,1,1.605,1.1,6.953,6.953,0,0,1,1.251,1.471,7.21,7.21,0,0,1,.812,1.788A7.08,7.08,0,0,1,102.856-7.08Zm-4.2,0a12.138,12.138,0,0,0-.067-1.239A8.983,8.983,0,0,0,98.364-9.6a6.575,6.575,0,0,0-.433-1.208,3.973,3.973,0,0,0-.677-1.013,3.083,3.083,0,0,0-.964-.7,3.055,3.055,0,0,0-1.306-.262,2.827,2.827,0,0,0-1.257.269,3.191,3.191,0,0,0-.958.714,4.063,4.063,0,0,0-.684,1.031,7.478,7.478,0,0,0-.446,1.215,8.522,8.522,0,0,0-.244,1.27,10.622,10.622,0,0,0-.073,1.2,10.622,10.622,0,0,0,.073,1.2A8.7,8.7,0,0,0,91.638-4.6a7.208,7.208,0,0,0,.446,1.215,4.1,4.1,0,0,0,.684,1.025,3.191,3.191,0,0,0,.958.714,2.827,2.827,0,0,0,1.257.269,3.024,3.024,0,0,0,1.294-.262,3.109,3.109,0,0,0,.97-.7,3.905,3.905,0,0,0,.677-1.013,6.982,6.982,0,0,0,.433-1.208,8.645,8.645,0,0,0,.232-1.282A11.962,11.962,0,0,0,98.657-7.08Z" transform="translate(477 242)" fill="#fff"/>
  </g>
</svg>
